<svg width="47" height="20" viewBox="0 0 47 20" fill="none" xmlns="http://www.w3.org/2000/svg">
<rect width="47" height="20" fill="#757519"/>
<path d="M5.09375 14.1406C5.03125 14.7656 4.6875 15.1042 4.0625 15.1562C3.77083 15.1562 3.51562 15.0625 3.29688 14.875C3.08854 14.6771 2.98438 14.4323 2.98438 14.1406V6.76562C2.99479 6.47396 3.10417 6.23438 3.3125 6.04688C3.52083 5.84896 3.77083 5.75 4.0625 5.75H10.625C11.5417 5.78125 12.2344 5.98438 12.7031 6.35938C13.1719 6.72396 13.5104 7.14062 13.7188 7.60938C13.9271 8.07812 14.0312 8.55208 14.0312 9.03125C14.0312 9.53125 13.9271 10.0156 13.7188 10.4844C13.5208 10.9531 13.1823 11.375 12.7031 11.75C12.2344 12.1146 11.6354 12.2917 10.9062 12.2812H6.96875C6.67708 12.2812 6.43229 12.1771 6.23438 11.9688C6.02604 11.7708 5.92188 11.526 5.92188 11.2344C5.92188 10.9427 6.02083 10.6979 6.21875 10.5C6.42708 10.2917 6.67708 10.1875 6.96875 10.1875H11C11.1979 10.1875 11.3594 10.125 11.4844 10C11.6198 9.86458 11.7188 9.71354 11.7812 9.54688C11.8438 9.36979 11.875 9.19271 11.875 9.01562C11.875 8.84896 11.8438 8.68229 11.7812 8.51562C11.7188 8.33854 11.6198 8.1875 11.4844 8.0625C11.3594 7.92708 11.1979 7.85417 11 7.84375H5.5C5.22917 7.85417 5.09375 7.98958 5.09375 8.25V14.1406ZM17.2969 15.2188C16.8802 15.2188 16.5312 15.0729 16.25 14.7812C15.9792 14.4896 15.8438 14.125 15.8438 13.6875C15.8438 13.25 15.9792 12.8854 16.25 12.5938C16.5312 12.3021 16.8802 12.1562 17.2969 12.1562C17.7135 12.1562 18.0625 12.3021 18.3438 12.5938C18.625 12.8854 18.7656 13.25 18.7656 13.6875C18.7656 14.125 18.625 14.4896 18.3438 14.7812C18.0625 15.0729 17.7135 15.2188 17.2969 15.2188ZM32.3906 12.5469C32.3906 12.2552 32.4896 12.0104 32.6875 11.8125C32.8958 11.6042 33.1458 11.5 33.4375 11.5H35.8281L35.4219 10.3438C35.2552 9.91667 35.0885 9.51562 34.9219 9.14062C34.7656 8.75521 34.5833 8.40625 34.375 8.09375C34.1875 7.78125 33.974 7.61458 33.7344 7.59375C33.4844 7.61458 33.2604 7.78125 33.0625 8.09375C32.8646 8.40625 32.6823 8.75521 32.5156 9.14062C32.3594 9.51562 32.1979 9.91667 32.0312 10.3438L30.5469 14.4062C30.4427 14.625 30.3073 14.8073 30.1406 14.9531C29.9844 15.0885 29.7448 15.1562 29.4219 15.1562C29.1198 15.1562 28.8698 15.0521 28.6719 14.8438C28.4844 14.6354 28.401 14.3854 28.4219 14.0938C28.4323 13.9583 28.4635 13.8333 28.5156 13.7188L30.2344 9.28125C30.7135 8.11458 31.1927 7.17188 31.6719 6.45312C32.1406 5.74479 32.8281 5.38542 33.7344 5.375C34.6302 5.38542 35.3125 5.74479 35.7812 6.45312C36.2604 7.15104 36.7396 8.09375 37.2188 9.28125L38.9375 13.7188C38.9896 13.8333 39.0208 13.9583 39.0312 14.0938C39.0521 14.3854 38.9635 14.6354 38.7656 14.8438C38.5781 15.0521 38.3333 15.1562 38.0312 15.1562C37.6875 15.1562 37.4323 15.0885 37.2656 14.9531C37.1094 14.8073 36.9792 14.625 36.875 14.4062L36.5781 13.5938H33.4375C33.1458 13.5938 32.901 13.4896 32.7031 13.2812C32.4948 13.0833 32.3906 12.8385 32.3906 12.5469ZM42.2031 15.2188C41.7865 15.2188 41.4375 15.0729 41.1562 14.7812C40.8854 14.4896 40.75 14.125 40.75 13.6875C40.75 13.25 40.8854 12.8854 41.1562 12.5938C41.4375 12.3021 41.7865 12.1562 42.2031 12.1562C42.6198 12.1562 42.9688 12.3021 43.25 12.5938C43.5312 12.8854 43.6719 13.25 43.6719 13.6875C43.6719 14.125 43.5312 14.4896 43.25 14.7812C42.9688 15.0729 42.6198 15.2188 42.2031 15.2188Z" fill="white"/>
</svg>
